<svg width="39" height="44" viewBox="0 0 39 44" fill="none" xmlns="http://www.w3.org/2000/svg">
<g clip-path="url(#clip0_104_1048)">
<mask id="mask0_104_1048" style="mask-type:luminance" maskUnits="userSpaceOnUse" x="0" y="0" width="39" height="44">
<path d="M38.5 0H0V44H38.5V0Z" fill="white"/>
</mask>
<g mask="url(#mask0_104_1048)">
<g filter="url(#filter0_d_104_1048)">
<path fill-rule="evenodd" clip-rule="evenodd" d="M24.3982 34.1803C24.5553 33.9803 24.7667 33.8292 25.0044 33.7352C30.7252 31.4737 34.767 25.9414 34.767 19.4752C34.767 10.9973 27.819 4.12463 19.2481 4.12463C10.6773 4.12463 3.72925 10.9973 3.72925 19.4752C3.72925 25.9414 7.77106 31.4737 13.492 33.7352C13.7297 33.8292 13.941 33.9803 14.0982 34.1803L18.1628 39.3496C18.7132 40.0496 19.783 40.0496 20.3335 39.3496L24.3982 34.1803Z" fill="url(#paint0_linear_104_1048)"/>
</g>
<path fill-rule="evenodd" clip-rule="evenodd" d="M23.9839 31.2093C28.6959 29.3466 32.017 24.7912 32.017 19.4752C32.017 12.4996 26.3002 6.8448 19.2481 6.8448C12.1961 6.8448 6.47925 12.4996 6.47925 19.4752C6.47925 24.7912 9.80041 29.3466 14.5125 31.2093C15.1693 31.4689 15.79 31.9012 16.2689 32.5103L19.2481 36.2991L22.2275 32.5103C22.7064 31.9012 23.327 31.4689 23.9839 31.2093ZM25.0044 33.7352C24.7667 33.8292 24.5553 33.9803 24.3982 34.1803L20.3335 39.3496C19.783 40.0496 18.7132 40.0496 18.1628 39.3496L14.0982 34.1803C13.941 33.9803 13.7297 33.8292 13.492 33.7352C7.77106 31.4737 3.72925 25.9414 3.72925 19.4752C3.72925 10.9973 10.6773 4.12463 19.2481 4.12463C27.819 4.12463 34.767 10.9973 34.767 19.4752C34.767 25.9414 30.7252 31.4737 25.0044 33.7352Z" fill="white"/>
<path d="M27.8758 18.0946C27.9694 18.6127 28.0162 19.1382 28.0156 19.6647C28.0156 21.6528 27.3397 23.5818 26.099 25.1351C24.8582 26.6884 23.1263 27.774 21.1874 28.2133C19.2485 28.6528 17.2179 28.4201 15.4286 27.5533C13.6395 26.6867 12.198 25.2375 11.3409 23.4437C10.4838 21.6499 10.2619 19.6181 10.7116 17.6815C11.1614 15.745 12.2561 14.0189 13.816 12.7864C15.3761 11.554 17.3086 10.8885 19.2966 10.899C21.2847 10.9096 23.21 11.5957 24.7569 12.8446L23.0515 14.1017C21.8071 13.2513 20.3138 12.8422 18.8099 12.9395C17.3059 13.0368 15.8778 13.635 14.7535 14.6386C13.6291 15.6422 12.8732 16.9935 12.6064 18.4768C12.3396 19.96 12.5772 21.49 13.2813 22.8225C13.9854 24.155 15.1155 25.2133 16.4913 25.8288C17.8672 26.4441 19.4094 26.5809 20.872 26.2175C22.3347 25.8541 23.6335 25.0114 24.5612 23.8238C25.4891 22.636 25.9925 21.1718 25.9911 19.6647V19.4854L27.8758 18.0946Z" fill="white"/>
<path d="M27.2374 16.0487C26.9565 15.4292 26.6041 14.8445 26.1872 14.3069L19.2516 19.4124L15.9153 17.3271V19.8426L19.2516 21.934L27.2374 16.0487Z" fill="white"/>
</g>
</g>
<defs>
<filter id="filter0_d_104_1048" x="0.729248" y="2.12463" width="37.0378" height="41.75" filterUnits="userSpaceOnUse" color-interpolation-filters="sRGB">
<feFlood flood-opacity="0" result="BackgroundImageFix"/>
<feColorMatrix in="SourceAlpha" type="matrix" values="0 0 0 0 0 0 0 0 0 0 0 0 0 0 0 0 0 0 127 0" result="hardAlpha"/>
<feOffset dy="1"/>
<feGaussianBlur stdDeviation="1.5"/>
<feComposite in2="hardAlpha" operator="out"/>
<feColorMatrix type="matrix" values="0 0 0 0 0 0 0 0 0 0 0 0 0 0 0 0 0 0 0.18 0"/>
<feBlend mode="normal" in2="BackgroundImageFix" result="effect1_dropShadow_104_1048"/>
<feBlend mode="normal" in="SourceGraphic" in2="effect1_dropShadow_104_1048" result="shape"/>
</filter>
<linearGradient id="paint0_linear_104_1048" x1="38.5" y1="4.12501" x2="19.25" y2="39.875" gradientUnits="userSpaceOnUse">
<stop stop-color="#049CF0"/>
<stop offset="0.536458" stop-color="#0FA9C6"/>
<stop offset="1" stop-color="#30CF4D"/>
</linearGradient>
<clipPath id="clip0_104_1048">
<rect width="38.5" height="44" fill="white"/>
</clipPath>
</defs>
</svg>
