<svg width="48.000000" height="48.000000" viewBox="0 0 48 48" fill="none" xmlns="http://www.w3.org/2000/svg" xmlns:xlink="http://www.w3.org/1999/xlink">
	<desc>
			Created with Pixso.
	</desc>
	<defs>
		<clipPath id="clip7_310">
			<rect id="error" width="48.000000" height="48.000000" fill="white" fill-opacity="0"/>
		</clipPath>
	</defs>
	<g clip-path="url(#clip7_310)">
		<mask id="mask7_313" mask-type="alpha" maskUnits="userSpaceOnUse" x="0.000000" y="0.000000" width="48.000000" height="48.000000">
			<rect id="rect" width="48.000000" height="48.000000" fill="#D9D9D9" fill-opacity="1.000000"/>
		</mask>
		<g mask="url(#mask7_313)">
			<path id="path" d="M23.99 34C24.46 34 24.85 33.84 25.17 33.52C25.49 33.21 25.64 32.81 25.64 32.35C25.64 31.88 25.49 31.49 25.17 31.17C24.86 30.85 24.46 30.7 24 30.7C23.53 30.7 23.14 30.85 22.82 31.17C22.5 31.49 22.35 31.88 22.35 32.34C22.35 32.81 22.5 33.2 22.82 33.52C23.13 33.84 23.53 34 23.99 34ZM22.64 26.35L25.64 26.35L25.64 13.7L22.64 13.7L22.64 26.35ZM24.01 44C21.25 44 18.66 43.47 16.23 42.42C13.81 41.37 11.69 39.94 9.87 38.12C8.05 36.3 6.62 34.18 5.57 31.75C4.52 29.33 4 26.73 4 23.97C4 21.21 4.52 18.62 5.57 16.19C6.62 13.76 8.05 11.64 9.87 9.85C11.69 8.04 13.81 6.62 16.24 5.57C18.66 4.52 21.26 4 24.02 4C26.78 4 29.37 4.52 31.8 5.57C34.23 6.62 36.35 8.04 38.14 9.85C39.95 11.64 41.37 13.76 42.42 16.2C43.47 18.63 44 21.22 44 23.98C44 26.74 43.47 29.33 42.42 31.76C41.37 34.18 39.95 36.3 38.14 38.11C36.35 39.92 34.23 41.35 31.8 42.41C29.36 43.47 26.77 44 24.01 44Z" fill="#171A17" fill-opacity="1.000000" fill-rule="nonzero"/>
		</g>
	</g>
</svg>
