<svg width="36.000000" height="36.000000" viewBox="0 0 36 36" fill="none" xmlns="http://www.w3.org/2000/svg" xmlns:xlink="http://www.w3.org/1999/xlink">
	<desc>
			Created with Pixso.
	</desc>
	<defs/>
	<rect id="Logo" width="36.000000" height="36.000000" fill="#FFFFFF" fill-opacity="0"/>
	<path id="Line 106" d="M35.05 11.35L35.7 8.37L35.98 6.34C36.09 5.56 35.55 4.84 34.74 4.67C29.34 3.55 24.05 2.04 18.89 0.16L18.81 0.13C18.33 -0.05 17.8 -0.05 17.32 0.13C12.14 2.09 6.79 3.63 1.35 4.73L0.58 4.89C0.23 4.96 -0.02 5.26 0 5.6L0.09 7.97C0.23 11.04 2.4 13.67 5.52 14.54L25.75 20.17C26.64 20.42 27.07 21.38 26.64 22.17C24.96 25.21 22.55 27.83 19.58 29.83L18.67 30.45C18.27 30.72 17.74 30.73 17.34 30.46C13.74 28.08 10.71 25.02 8.44 21.46L7.82 20.48C7.1 19.36 5.93 18.56 4.56 18.29L1.8 17.72C1.59 17.67 1.4 17.87 1.46 18.07C3.92 25.62 9.41 31.94 16.78 35.7C17.56 36.1 18.51 36.09 19.3 35.68L19.41 35.63C26.59 31.86 31.78 25.41 33.69 17.89C33.75 17.64 33.59 17.4 33.34 17.32L5.66 9.44L5.22 9.25C5.09 9.2 4.97 9.11 4.89 9.02C4.73 8.84 4.83 8.56 5.08 8.52L5.77 8.4C9.91 7.71 13.93 6.5 17.73 4.78C17.96 4.67 18.23 4.67 18.47 4.76L20.9 5.71C23.59 6.77 26.37 7.63 29.2 8.31C29.97 8.48 30.44 9.2 30.27 9.94L29.89 11.53C29.74 12.19 30.17 12.84 30.86 12.99L31.92 13.23C33.33 13.55 34.76 12.7 35.05 11.35Z" fill="#434343" fill-opacity="1.000000" fill-rule="evenodd"/>
</svg>
